<svg width="203" height="62" viewBox="0 0 203 62" fill="none" xmlns="http://www.w3.org/2000/svg">
<g clip-path="url(#clip0_1523_3501)">
<path d="M26.883 34.7699C29.9876 33.1762 32.4034 30.4215 33.5624 27.0723C34.0536 25.6597 34.3211 24.1399 34.3211 22.5568C34.3211 20.9736 34.0554 19.4573 33.5642 18.043C31.8773 13.1774 27.5403 9.56256 22.2943 8.95041C21.7734 8.88884 21.2437 8.85718 20.7088 8.85718C20.735 8.85718 20.7647 8.85718 20.7997 8.85718H8.86379C8.86379 8.85718 8.85505 8.86245 8.8568 8.86773L11.416 12.5424L12.8232 14.5636L15.2425 18.0395C15.2425 18.0395 15.246 18.043 15.2478 18.043H20.5934C23.0757 18.043 25.2066 20.0853 25.1926 22.5831C25.1804 24.7996 23.5791 26.6378 21.4797 27.0037C21.2297 27.0494 20.971 27.0723 20.707 27.0723H10.3951C10.3951 27.0723 10.3864 27.0775 10.3899 27.0828L16.2512 35.507L16.7739 36.2581L23.1281 45.3894C23.1281 45.3894 23.1316 45.3929 23.1334 45.3929H34.2616C34.2616 45.3929 34.2704 45.3876 34.2669 45.3823L27.9196 36.2598C27.9196 36.2598 27.9161 36.2563 27.9144 36.2563M20.7053 8.85718C20.6721 8.85718 20.6389 8.85894 20.6039 8.85894C20.5829 8.85718 20.6161 8.85718 20.7053 8.85718Z" fill="#F7453C"/>
</g>
<path d="M148.918 44.5426C148.93 44.4657 148.99 44.4144 149.05 44.4144H149.436C149.508 44.4144 149.556 44.4657 149.556 44.5426V49.9773C149.556 50.0542 149.508 50.1055 149.436 50.1055H149.038C148.978 50.1055 148.918 50.0542 148.918 49.9901L148.773 49.0416C148.339 49.785 147.604 50.2337 146.628 50.2337C145.013 50.2337 143.928 49.0288 143.928 47.2599C143.928 45.4911 145.013 44.2991 146.628 44.2991C147.604 44.2991 148.351 44.7349 148.773 45.4783L148.918 44.5426ZM146.7 49.4133C147.905 49.4133 148.737 48.5545 148.773 47.2599C148.737 45.9782 147.917 45.1066 146.7 45.1066C145.483 45.1066 144.688 45.9782 144.688 47.2599C144.688 48.5417 145.495 49.4133 146.7 49.4133Z" fill="#1D1D1B"/>
<path d="M158.117 45.4908L158.285 44.5423C158.297 44.4783 158.358 44.427 158.418 44.427H158.78C158.852 44.427 158.9 44.4783 158.9 44.5423L158.912 50.1822C158.912 51.9895 157.731 53.143 156.056 53.143C155.309 53.1302 154.574 52.9251 153.971 52.5534C153.911 52.515 153.887 52.4381 153.923 52.3612L154.188 51.8613C154.212 51.8228 154.248 51.7972 154.272 51.7972C154.296 51.7972 154.321 51.81 154.345 51.8228C154.815 52.1433 155.321 52.2971 156.056 52.3355C157.345 52.3227 158.117 51.5536 158.129 50.2462V49.0414C157.695 49.7976 156.948 50.2334 155.972 50.2334C154.357 50.2334 153.272 49.0414 153.272 47.2725C153.272 45.5037 154.357 44.2988 155.972 44.2988C156.948 44.2988 157.695 44.7474 158.117 45.4908ZM156.044 49.4259C157.249 49.4259 158.117 48.5543 158.117 47.2725C158.117 45.9907 157.249 45.1191 156.044 45.1191C154.839 45.1191 154.031 45.9907 154.031 47.2725C154.031 48.5543 154.839 49.4259 156.044 49.4259Z" fill="#1D1D1B"/>
<path d="M165.536 49.4131C166.211 49.4131 166.754 49.1824 167.115 48.7722C167.151 48.7337 167.187 48.7209 167.212 48.7209C167.248 48.7209 167.284 48.7337 167.308 48.7594L167.694 49.1439C167.754 49.1952 167.754 49.2721 167.706 49.3234C167.212 49.9002 166.452 50.2334 165.536 50.2334C163.801 50.2334 162.632 49.0285 162.632 47.2597C162.632 45.4908 163.753 44.2988 165.404 44.2988C167.151 44.2988 168.2 45.5037 168.176 47.5033C168.176 47.5802 168.14 47.6314 168.067 47.6314H163.419C163.576 48.7081 164.384 49.4131 165.54 49.4131H165.536ZM167.392 46.888C167.248 45.8113 166.488 45.1064 165.404 45.1064C164.319 45.1064 163.56 45.8113 163.415 46.888H167.388H167.392Z" fill="#1D1D1B"/>
<path d="M171.908 44.5423C171.908 44.4783 171.956 44.427 172.028 44.427H172.39C172.462 44.427 172.51 44.4783 172.522 44.5423L172.667 45.5549C173.016 44.7987 173.655 44.2988 174.595 44.2988C175.872 44.2988 176.74 45.0679 176.74 46.8367V49.9899C176.74 50.054 176.692 50.1052 176.632 50.1052H176.077C176.005 50.1052 175.957 50.054 175.957 49.9899V46.8239C175.957 45.5549 175.366 45.1064 174.511 45.1064C173.462 45.1064 172.739 46.1445 172.679 47.3622L172.691 49.9899C172.691 50.054 172.643 50.1052 172.57 50.1052H172.028C171.956 50.1052 171.908 50.054 171.908 49.9899V44.5423Z" fill="#1D1D1B"/>
<path d="M183.208 50.2334C181.557 50.2334 180.436 49.0285 180.436 47.2597C180.436 45.2601 181.846 44.2732 183.244 44.286C184.136 44.286 185.015 44.6962 185.521 45.5165C185.558 45.5806 185.558 45.6575 185.497 45.7088L185.1 46.0677C185.076 46.0933 185.039 46.1061 185.015 46.1061C184.967 46.1061 184.931 46.0805 184.907 46.0292C184.569 45.4652 183.967 45.1191 183.208 45.1191C182.002 45.1191 181.195 45.9779 181.195 47.2597C181.195 48.5415 182.002 49.4131 183.208 49.4131C183.967 49.4131 184.569 49.0798 184.907 48.503C184.931 48.4518 184.979 48.4389 185.015 48.4389C185.039 48.4389 185.076 48.439 185.1 48.4646L185.497 48.8363C185.546 48.8748 185.558 48.9516 185.521 49.0157C185.051 49.772 184.232 50.2334 183.208 50.2334Z" fill="#1D1D1B"/>
<path d="M188.627 44.427H189.253C189.326 44.427 189.386 44.4783 189.41 44.5424L191.097 49.0798L192.845 44.5424C192.869 44.4783 192.929 44.427 193.001 44.427H193.628C193.736 44.427 193.773 44.5039 193.736 44.5936L190.459 52.9123C190.434 52.9764 190.374 53.0277 190.302 53.0277H189.747C189.651 53.0277 189.603 52.9636 189.639 52.8611L190.712 50.0924L188.518 44.5936C188.482 44.5039 188.518 44.427 188.627 44.427Z" fill="#1D1D1B"/>
<path d="M54.8305 31.02V37.6429H49.8214V17.7144H57.8353C62.6099 17.7144 65.0592 21.0391 65.0006 24.3572C64.9419 26.742 63.5551 29.3161 60.9022 30.5384L65.3214 37.6429H59.957L55.655 31.0233H54.8305V31.02ZM54.8305 26.6224H57.718C59.1911 26.6224 59.988 25.5729 60.0156 24.5797C60.0466 23.5302 59.2773 22.3677 57.718 22.3677H54.8305V26.6224Z" fill="#1D1D1B"/>
<path d="M73.5888 32.9863H81.9285V37.6429H68.6428V17.7144H81.9285V22.371H73.5888V25.1372H81.5879V27.5126V29.8235H73.5888V32.9863Z" fill="#1D1D1B"/>
<path d="M93.6225 17.7144C100.578 17.7144 104.071 22.724 104.071 27.707C104.071 32.6899 100.578 37.6429 93.6225 37.6429H85.25V17.7144H93.6225ZM93.6225 33.0033C97.176 33.0033 98.9809 30.3268 98.9809 27.707C98.9809 25.0872 97.1725 22.3274 93.6225 22.3274H90.3687V33.0033H93.6225Z" fill="#1D1D1B"/>
<path d="M117.783 25.2305H123.574V17.7144H128.429V37.6429H123.574V29.9268H117.783V37.6429H112.929V17.7144H117.783V25.2305Z" fill="#1D1D1B"/>
<path d="M141.7 17.7144C147.196 17.7144 151.679 22.0275 151.679 27.7191C151.679 33.4107 147.199 37.6429 141.7 37.6429C136.2 37.6429 131.75 33.4139 131.75 27.7191C131.75 22.0243 136.204 17.7144 141.7 17.7144ZM141.59 33.1647C144.258 33.1939 146.951 31.3689 146.951 27.7191C146.951 24.0692 144.258 22.1925 141.59 22.2475C138.981 22.3026 136.422 24.0984 136.422 27.7191C136.422 31.3398 138.977 33.1356 141.59 33.1647Z" fill="#1D1D1B"/>
<path d="M164.95 17.7144C170.446 17.7144 174.929 22.0275 174.929 27.7191C174.929 33.4107 170.449 37.6429 164.95 37.6429C159.45 37.6429 155 33.4139 155 27.7191C155 22.0243 159.454 17.7144 164.95 17.7144ZM164.84 33.1647C167.508 33.1939 170.201 31.3689 170.201 27.7191C170.201 24.0692 167.508 22.1925 164.84 22.2475C162.231 22.3026 159.672 24.0984 159.672 27.7191C159.672 31.3398 162.227 33.1356 164.84 33.1647Z" fill="#1D1D1B"/>
<path d="M193.099 17.7144L186.135 27.6203L193.75 37.6429H187.793L181.948 29.9268V37.6429H177.143V17.7144H181.948V25.4571L187.399 17.7144H193.099Z" fill="#1D1D1B"/>
<defs>
<clipPath id="clip0_1523_3501">
<rect width="26.5714" height="36.5357" fill="white" transform="translate(8.85712 8.85718)"/>
</clipPath>
</defs>
</svg>
